<?xml version="1.0" encoding="UTF-8" standalone="no"?>
<!DOCTYPE svg PUBLIC "-//W3C//DTD SVG 1.1//EN" "http://www.w3.org/Graphics/SVG/1.1/DTD/svg11.dtd">
<svg version="1.1" xmlns="http://www.w3.org/2000/svg" xmlns:xlink="http://www.w3.org/1999/xlink" preserveAspectRatio="xMidYMid meet" viewBox="226 190 41.500000000000114 56.25" width="41.5" height="56.25"><defs><path d="M226 190L267.5 190L267.5 246.25L226 246.25L226 190Z" id="e5gjo3zi6i"></path><path d="M263.84 224.85C263.84 234.7 256 242.7 246.33 242.7C236.67 242.7 228.83 234.7 228.83 224.85C228.83 214.99 236.67 206.99 246.33 206.99C256 206.99 263.84 214.99 263.84 224.85Z" id="b10r5o1Cc"></path><path d="M254.74 224.85C254.74 229.29 250.97 232.9 246.33 232.9C241.7 232.9 237.93 229.29 237.93 224.85C237.93 220.4 241.7 216.79 246.33 216.79C250.97 216.79 254.74 220.4 254.74 224.85Z" id="keJLFwLD9"></path><path d="M266.64 190.7L260.64 190.7L260.64 224.7L266.64 224.7L266.64 190.7Z" id="b1nWRcWMjy"></path></defs><g><g><g><use xlink:href="#e5gjo3zi6i" opacity="1" fill="#6ee5ce" fill-opacity="0"></use><g><use xlink:href="#e5gjo3zi6i" opacity="1" fill-opacity="0" stroke="#6365c2" stroke-width="0" stroke-opacity="1"></use></g></g><g><g><g><use xlink:href="#b10r5o1Cc" opacity="1" fill="#6ca6e5" fill-opacity="0"></use><g><use xlink:href="#b10r5o1Cc" opacity="1" fill-opacity="0" stroke="#6365c2" stroke-width="6" stroke-opacity="1"></use></g></g><g><use xlink:href="#keJLFwLD9" opacity="1" fill="#6ce5ce" fill-opacity="0.99"></use></g></g><g><use xlink:href="#b1nWRcWMjy" opacity="1" fill="#6365c2" fill-opacity="1"></use><g><use xlink:href="#b1nWRcWMjy" opacity="1" fill-opacity="0" stroke="#6365c2" stroke-width="0" stroke-opacity="1"></use></g></g></g></g></g></svg>