<?xml version="1.0" encoding="UTF-8" standalone="no"?>
<!DOCTYPE svg PUBLIC "-//W3C//DTD SVG 1.1//EN" "http://www.w3.org/Graphics/SVG/1.1/DTD/svg11.dtd">
<svg version="1.1" xmlns="http://www.w3.org/2000/svg" xmlns:xlink="http://www.w3.org/1999/xlink" preserveAspectRatio="xMidYMid meet" viewBox="227 280 41.500000000000114 44.25" width="41.5" height="44.25"><defs><path d="M265.24 302.14C265.24 312 257.4 320 247.73 320C238.07 320 230.23 312 230.23 302.14C230.23 292.29 238.07 284.28 247.73 284.28C257.4 284.28 265.24 292.29 265.24 302.14Z" id="c3daEhy3Jj"></path><path d="M256.14 302.14C256.14 306.59 252.37 310.2 247.73 310.2C243.1 310.2 239.33 306.59 239.33 302.14C239.33 297.7 243.1 294.09 247.73 294.09C252.37 294.09 256.14 297.7 256.14 302.14Z" id="c15tFWPZk4"></path><path d="M227 280L268.5 280L268.5 324.25L227 324.25L227 280Z" id="k1wgD3bwXh"></path></defs><g><g><g><g><use xlink:href="#c3daEhy3Jj" opacity="1" fill="#6ca6e5" fill-opacity="0"></use><g><use xlink:href="#c3daEhy3Jj" opacity="1" fill-opacity="0" stroke="#6365c2" stroke-width="6" stroke-opacity="1"></use></g></g><g><use xlink:href="#c15tFWPZk4" opacity="1" fill="#6ce5ce" fill-opacity="0.99"></use></g></g><g><use xlink:href="#k1wgD3bwXh" opacity="1" fill="#6ee5ce" fill-opacity="0"></use><g><use xlink:href="#k1wgD3bwXh" opacity="1" fill-opacity="0" stroke="#6365c2" stroke-width="0" stroke-opacity="0"></use></g></g></g></g></svg>